<?xml version="1.0" encoding="iso-8859-1"?>
<!-- Generator: Adobe Illustrator 19.0.0, SVG Export Plug-In . SVG Version: 6.00 Build 0)  -->
<svg xmlns="http://www.w3.org/2000/svg" xmlns:xlink="http://www.w3.org/1999/xlink" version="1.1" id="Capa_1" x="0px" y="0px" viewBox="0 0 480.072 480.072" style="enable-background:new 0 0 480.072 480.072;" xml:space="preserve" width="512px" height="512px">
<g>
	<g>
		<path d="M444.336,182.756c21.412-15.63,26.1-45.658,10.47-67.07c-15.63-21.412-45.658-26.1-67.07-10.47s-26.1,45.658-10.47,67.07    c2.927,4.01,6.459,7.542,10.47,10.47c-21.828,10.765-35.663,32.978-35.7,57.316v232c-0.001,4.417,3.579,7.999,7.996,8    c0.001,0,0.003,0,0.004,0h112c4.417,0.001,7.999-3.579,8-7.996c0-0.001,0-0.003,0-0.004v-232    C479.999,215.733,466.164,193.521,444.336,182.756z M384.036,144.072c0-17.673,14.327-32,32-32c17.673,0,32,14.327,32,32    s-14.327,32-32,32C398.371,176.053,384.055,161.737,384.036,144.072z M464.036,464.072h-96v-224c0-26.51,21.49-48,48-48    c26.51,0,48,21.49,48,48V464.072z" fill="#4a90e2"/>
	</g>
</g>
<g>
	<g>
		<path d="M92.336,182.756c21.412-15.63,26.1-45.658,10.47-67.07c-15.63-21.412-45.658-26.1-67.07-10.47    c-21.412,15.63-26.1,45.658-10.47,67.07c2.927,4.01,6.459,7.542,10.47,10.47c-21.828,10.765-35.663,32.978-35.7,57.316v232    c-0.001,4.417,3.579,7.999,7.996,8c0.001,0,0.003,0,0.004,0h112c4.417,0.001,7.999-3.579,8-7.996c0-0.001,0-0.003,0-0.004v-232    C127.999,215.733,114.164,193.521,92.336,182.756z M32.036,144.072c0-17.673,14.327-32,32-32s32,14.327,32,32s-14.327,32-32,32    C46.371,176.053,32.055,161.737,32.036,144.072z M112.036,464.072h-96v-224c0-26.51,21.49-48,48-48s48,21.49,48,48V464.072z" fill="#4a90e2"/>
	</g>
</g>
<g>
	<g>
		<path d="M275.063,117.571c29.583-19.345,37.882-59.008,18.537-88.591c-19.345-29.583-59.008-37.882-88.591-18.537    s-37.882,59.008-18.537,88.591c4.834,7.392,11.145,13.703,18.537,18.537c-36.52,13.106-60.905,47.7-60.973,86.5v268    c-0.001,4.417,3.579,7.999,7.996,8c0.001,0,0.003,0,0.004,0h176c4.417,0.001,7.999-3.579,8-7.996c0-0.001,0-0.003,0-0.004v-268    C335.968,165.271,311.583,130.677,275.063,117.571z M192.036,64.072c0-26.51,21.49-48,48-48c26.51,0,48,21.49,48,48    s-21.49,48-48,48C213.538,112.043,192.065,90.57,192.036,64.072z M320.036,464.072h-160v-260c0.048-41.954,34.046-75.952,76-76h8    c41.954,0.048,75.952,34.046,76,76V464.072z" fill="#4a90e2"/>
	</g>
</g>
<g>
</g>
<g>
</g>
<g>
</g>
<g>
</g>
<g>
</g>
<g>
</g>
<g>
</g>
<g>
</g>
<g>
</g>
<g>
</g>
<g>
</g>
<g>
</g>
<g>
</g>
<g>
</g>
<g>
</g>
</svg>
