<?xml version="1.0" encoding="iso-8859-1"?>
<!-- Generator: Adobe Illustrator 19.0.0, SVG Export Plug-In . SVG Version: 6.00 Build 0)  -->
<svg xmlns="http://www.w3.org/2000/svg" xmlns:xlink="http://www.w3.org/1999/xlink" version="1.1" id="Layer_1" x="0px" y="0px" viewBox="0 0 512 512" style="enable-background:new 0 0 512 512;" xml:space="preserve" width="512px" height="512px">
<g>
	<g>
		<g>
			<path d="M417.616,353.667c-0.828-10.837-9.892-19.408-20.937-19.408h-16.8c10.52-29.378,16.052-62.127,16.052-95.727     c0-26.107-3.274-51.463-9.72-75.477c4.946-4.09,8.105-10.27,8.105-17.175v-3.487c0-11.148-8.238-20.382-18.941-22     c-4.178-25.79-16.649-49.129-34.761-66.914v-5.015c0-4.466-3.618-8.084-8.084-8.084c-1.951,0-3.739,0.691-5.136,1.841     c-10.398-7.639-22.086-13.66-34.711-17.68v-2.157C292.682,10.041,282.641,0,270.298,0h-28.598     c-12.343,0-22.385,10.041-22.385,22.385v2.157c-12.625,4.019-24.313,10.041-34.711,17.68c-1.396-1.15-3.185-1.841-5.135-1.841     c-4.466,0-8.084,3.618-8.084,8.084v5.014c-18.112,17.784-30.584,41.124-34.762,66.914c-10.701,1.619-18.94,10.853-18.94,22v3.487     c0,6.905,3.158,13.086,8.105,17.175c-6.447,24.014-9.72,49.37-9.72,75.477c0,33.601,5.533,66.348,16.053,95.727h-16.854     c-11.053,0-20.12,8.582-20.938,19.429c-34.779,14.103-57.772,47.872-57.772,85.802v51.492c0,11.59,9.429,21.019,21.019,21.019     h44.756h46.818H300.14c4.466,0,8.084-3.618,8.084-8.084c0-4.466-3.618-8.084-8.084-8.084H157.232v-18.343h197.479v18.343H329.24     c-4.465,0-8.084,3.619-8.084,8.084c0,4.466,3.62,8.084,8.084,8.084h33.556h46.818h44.81c11.59,0,21.019-9.429,21.019-21.019     v-51.492C475.443,401.534,452.429,367.755,417.616,353.667z M94.246,409.917v85.915H57.574c-2.674,0-4.851-2.176-4.851-4.851     v-51.492c0-29.01,16.29-55.086,41.523-68.018V409.917z M340.614,78.086c9.011,12.331,15.382,26.638,18.32,42.029h-18.32V78.086z      M292.682,41.623c11.764,4.403,22.485,10.858,31.763,18.891v59.601h-31.763V41.623z M241.701,16.168h28.598     c3.428,0,6.216,2.789,6.216,6.216v8.208v89.522h-41.029V30.593v-8.208h-0.001C235.484,18.957,238.273,16.168,241.701,16.168z      M187.553,60.513c9.279-8.034,19.999-14.487,31.763-18.89v78.492h-31.763V60.513z M171.384,78.085v42.029h-18.32     C156.003,104.724,162.373,90.416,171.384,78.085z M139.959,136.284h3.762H227.4h57.197h83.679h3.762     c3.368,0,6.108,2.741,6.108,6.109v3.487c0,2.621-1.662,4.856-3.986,5.721c-0.031,0.011-0.064,0.017-0.095,0.028     c-0.337,0.119-0.676,0.208-1.013,0.268c-0.003,0-0.006,0.001-0.01,0.001c-0.336,0.059-0.673,0.089-1.005,0.089h-68.913H139.959     c-0.331,0-0.666-0.03-1.001-0.089c-0.005-0.001-0.011-0.001-0.016-0.002c-0.337-0.06-0.676-0.15-1.012-0.268     c-0.026-0.01-0.053-0.014-0.079-0.024c-2.33-0.861-3.999-3.1-3.999-5.726v-3.486h-0.001     C133.851,139.025,136.591,136.284,139.959,136.284z M304.532,311.056c-0.991,0.478-1.997,0.929-3.012,1.364     c-0.15,0.064-0.3,0.128-0.45,0.191c-0.915,0.385-1.841,0.748-2.776,1.096c-0.157,0.058-0.312,0.121-0.469,0.178     c-2.103,0.767-4.252,1.437-6.44,2.011c-0.299,0.079-0.599,0.15-0.898,0.224c-0.781,0.195-1.568,0.377-2.361,0.546     c-0.336,0.072-0.673,0.146-1.011,0.212c-0.939,0.188-1.884,0.357-2.835,0.508c-0.142,0.023-0.283,0.052-0.427,0.073     c-1.077,0.164-2.163,0.299-3.255,0.415c-0.328,0.035-0.656,0.061-0.984,0.093c-0.818,0.077-1.641,0.139-2.466,0.188     c-0.335,0.021-0.67,0.041-1.007,0.057c-1.119,0.051-2.241,0.085-3.372,0.085H239.23c-1.131,0-2.254-0.035-3.372-0.085     c-0.336-0.015-0.672-0.037-1.007-0.057c-0.826-0.049-1.647-0.112-2.465-0.188c-0.329-0.03-0.659-0.058-0.986-0.093     c-1.091-0.116-2.176-0.251-3.253-0.415c-0.144-0.023-0.289-0.052-0.433-0.074c-0.949-0.15-1.892-0.32-2.828-0.507     c-0.338-0.068-0.676-0.14-1.014-0.213c-0.791-0.169-1.578-0.351-2.361-0.546c-0.299-0.074-0.597-0.146-0.895-0.223     c-3.367-0.885-6.643-1.998-9.805-3.333c-0.086-0.037-0.172-0.074-0.259-0.111c-1.029-0.439-2.048-0.898-3.053-1.382     c-0.019-0.01-0.039-0.018-0.058-0.028c-8.475-4.094-16.047-9.774-22.331-16.65c-0.076-0.083-0.152-0.164-0.226-0.247     c-0.742-0.819-1.466-1.654-2.171-2.505c-0.019-0.024-0.04-0.046-0.059-0.07c-0.674-0.816-1.325-1.651-1.964-2.497     c-0.274-0.363-0.537-0.734-0.804-1.103c-0.324-0.446-0.646-0.895-0.96-1.348c-0.345-0.499-0.683-1.001-1.015-1.508     c-0.194-0.295-0.383-0.595-0.573-0.893c-1.862-2.933-3.525-5.995-4.958-9.172c-0.003-0.006-0.006-0.014-0.01-0.02     c-1.498-3.322-2.751-6.766-3.746-10.302c-0.022-0.079-0.045-0.156-0.067-0.235c-0.222-0.801-0.429-1.607-0.624-2.417     c-0.05-0.207-0.096-0.416-0.144-0.624c-0.506-2.181-0.907-4.395-1.211-6.633c-0.079-0.579-0.157-1.158-0.222-1.741     c-0.054-0.48-0.098-0.961-0.142-1.443c-0.064-0.704-0.117-1.41-0.162-2.119c-0.025-0.392-0.052-0.785-0.07-1.179     c-0.051-1.117-0.085-2.238-0.085-3.367v-35.341c1.448,0.019,2.887,0.027,4.313,0.027c0.005,0,0.004,0,0.01,0     c2.134,0,4.23-0.027,6.307-0.066c0.458-0.009,0.916-0.017,1.371-0.028c2.054-0.047,4.087-0.108,6.087-0.191     c0.151-0.006,0.297-0.015,0.447-0.022c1.907-0.082,3.783-0.183,5.641-0.298c0.366-0.023,0.735-0.044,1.101-0.068     c1.955-0.127,3.887-0.269,5.788-0.429c0.212-0.018,0.422-0.038,0.634-0.056c1.785-0.154,3.545-0.324,5.282-0.507     c0.254-0.027,0.512-0.052,0.765-0.079c1.867-0.202,3.705-0.418,5.516-0.65c0.227-0.029,0.451-0.06,0.677-0.089     c1.732-0.226,3.441-0.465,5.121-0.718c0.125-0.018,0.252-0.037,0.376-0.055c1.782-0.271,3.531-0.556,5.256-0.855     c0.213-0.037,0.426-0.076,0.638-0.112c3.46-0.608,6.806-1.269,10.038-1.977c0.188-0.041,0.373-0.082,0.559-0.124     c3.239-0.718,6.365-1.481,9.38-2.284c0.151-0.04,0.303-0.081,0.453-0.121c3.04-0.817,5.965-1.672,8.779-2.558     c0.1-0.031,0.201-0.063,0.3-0.094c2.861-0.907,5.606-1.843,8.237-2.805c0.039-0.014,0.079-0.028,0.117-0.042     c1.32-0.483,2.612-0.971,3.874-1.465c0.032-0.012,0.064-0.025,0.095-0.038c2.529-0.99,4.943-1.998,7.247-3.017     c0.05-0.023,0.099-0.044,0.15-0.067c2.28-1.011,4.451-2.031,6.513-3.052c0.054-0.027,0.108-0.053,0.161-0.08     c2.052-1.019,3.997-2.037,5.838-3.048c0.049-0.027,0.096-0.053,0.144-0.079c1.841-1.013,3.576-2.018,5.209-3.006     c0.035-0.02,0.069-0.041,0.102-0.061c1.642-0.995,3.18-1.973,4.616-2.924c0.017-0.011,0.036-0.023,0.053-0.034     c0.715-0.474,1.404-0.942,2.07-1.402c0.019-0.013,0.038-0.027,0.057-0.04c1.318-0.914,2.537-1.796,3.661-2.64     c0.044-0.033,0.087-0.066,0.132-0.099c1.09-0.821,2.088-1.604,2.995-2.341c0.023-0.018,0.049-0.038,0.07-0.056     c0.027,0.03,0.055,0.059,0.082,0.089c0.086,0.097,0.174,0.189,0.261,0.285c0.401,0.445,0.804,0.884,1.212,1.313     c0.153,0.161,0.307,0.316,0.461,0.474c0.347,0.357,0.694,0.711,1.046,1.056c0.174,0.17,0.348,0.337,0.522,0.505     c0.337,0.324,0.677,0.646,1.018,0.96c0.18,0.166,0.361,0.331,0.542,0.495c0.345,0.31,0.691,0.615,1.038,0.915     c0.176,0.152,0.35,0.304,0.526,0.453c0.372,0.315,0.746,0.621,1.121,0.925c0.151,0.123,0.302,0.247,0.454,0.368     c0.466,0.37,0.933,0.73,1.402,1.082c0.06,0.045,0.121,0.094,0.182,0.139c0.549,0.41,1.099,0.807,1.651,1.194     c0.045,0.032,0.092,0.061,0.137,0.094c0.492,0.342,0.983,0.676,1.477,1c0.148,0.097,0.296,0.191,0.444,0.287     c0.393,0.254,0.787,0.506,1.18,0.75c0.177,0.109,0.352,0.216,0.529,0.322c0.369,0.224,0.738,0.444,1.107,0.66     c0.185,0.108,0.371,0.215,0.556,0.32c0.365,0.208,0.73,0.412,1.095,0.611c0.181,0.099,0.361,0.198,0.542,0.295     c0.386,0.206,0.77,0.405,1.152,0.603c0.157,0.081,0.315,0.164,0.471,0.243c0.451,0.227,0.9,0.447,1.35,0.663     c0.087,0.042,0.175,0.086,0.262,0.127c0.552,0.262,1.102,0.515,1.649,0.759c0.008,0.003,0.014,0.006,0.022,0.01     c0.524,0.233,1.046,0.457,1.564,0.675c0.143,0.06,0.285,0.116,0.428,0.176c0.384,0.159,0.767,0.314,1.148,0.464     c0.175,0.069,0.347,0.135,0.522,0.202c0.348,0.134,0.695,0.265,1.04,0.392c0.183,0.068,0.365,0.134,0.548,0.199     c0.337,0.122,0.673,0.24,1.007,0.356c0.178,0.061,0.356,0.123,0.532,0.182c0.342,0.115,0.681,0.226,1.02,0.336     c0.163,0.053,0.326,0.106,0.486,0.157c0.373,0.119,0.743,0.231,1.11,0.341c0.12,0.036,0.24,0.074,0.359,0.109     c0.972,0.288,1.923,0.549,2.849,0.787c0.142,0.037,0.28,0.07,0.421,0.106c0.316,0.08,0.63,0.157,0.939,0.232     c0.166,0.04,0.329,0.078,0.493,0.115c0.28,0.065,0.558,0.129,0.832,0.19c0.168,0.038,0.333,0.073,0.499,0.109     c0.265,0.057,0.527,0.112,0.786,0.166c0.164,0.033,0.326,0.067,0.486,0.099c0.257,0.051,0.508,0.099,0.758,0.147     c0.153,0.029,0.306,0.058,0.456,0.086c0.269,0.05,0.531,0.095,0.792,0.14c0.12,0.02,0.243,0.043,0.36,0.063     c0.375,0.064,0.743,0.123,1.099,0.179v49.987c0,1.13-0.034,2.252-0.085,3.37c-0.018,0.397-0.045,0.791-0.07,1.187     c-0.043,0.708-0.098,1.413-0.162,2.116c-0.044,0.484-0.089,0.968-0.143,1.449c-0.065,0.584-0.143,1.164-0.222,1.744     c-0.306,2.247-0.709,4.47-1.218,6.659c-0.05,0.214-0.098,0.431-0.149,0.645c-0.194,0.802-0.4,1.6-0.621,2.392     c-0.03,0.11-0.063,0.219-0.094,0.328c-0.996,3.517-2.247,6.942-3.741,10.244c-0.016,0.036-0.032,0.072-0.049,0.108     c-1.425,3.138-3.074,6.161-4.916,9.06c-0.204,0.32-0.406,0.642-0.615,0.959c-0.317,0.482-0.642,0.958-0.97,1.434     c-0.327,0.471-0.66,0.939-0.997,1.401c-0.257,0.354-0.512,0.708-0.776,1.057c-1.329,1.757-2.73,3.457-4.209,5.087     c-0.035,0.039-0.071,0.075-0.106,0.114c-0.765,0.84-1.548,1.662-2.351,2.466c-0.004,0.004-0.009,0.009-0.013,0.013     c-5.808,5.807-12.582,10.646-20.057,14.254C304.533,311.055,304.533,311.056,304.532,311.056z M311.199,355.097l10.542,3.947     l-33.11,52.871l-21.005-14.555l35.297-45.362L311.199,355.097z M244.345,397.361l-21.006,14.554l-33.109-52.87l18.818-7.046     L244.345,397.361z M141.064,469.405v26.427h-30.65v-77.829h30.65V469.405z M141.065,401.834h-30.65v-42.509v-4.046h-0.001     c0-2.674,2.176-4.851,4.851-4.851h20.949c1.624,0,3.057,0.81,3.938,2.039c0.078,0.107,0.149,0.236,0.223,0.358     c0.078,0.132,0.153,0.263,0.219,0.402c0.057,0.119,0.107,0.248,0.156,0.378c0.058,0.156,0.107,0.315,0.149,0.477     c0.038,0.144,0.067,0.295,0.092,0.451c0.031,0.198,0.055,0.4,0.061,0.606c0.003,0.115,0.008,0.231,0.014,0.349V401.834z      M155.462,346.861L155.462,346.861c-0.198-0.452-0.414-0.895-0.643-1.332c-0.135-0.255-0.28-0.503-0.425-0.752     c-0.157-0.272-0.319-0.539-0.488-0.803c-0.144-0.224-0.286-0.45-0.438-0.668c-0.3-0.431-0.611-0.855-0.943-1.263     c-13.275-30.82-20.289-66.583-20.289-103.509c0-24.359,2.997-47.998,8.916-70.375h137.872     c-17.172,10.147-47.347,22.683-93.748,24.962c-0.107,0.005-0.214,0.01-0.322,0.015c-1.345,0.065-2.709,0.119-4.081,0.165     c-0.354,0.012-0.707,0.025-1.063,0.036c-1.19,0.037-2.393,0.065-3.603,0.087c-0.411,0.008-0.817,0.018-1.23,0.025     c-1.573,0.024-3.159,0.038-4.766,0.038c-3.967,0-8.04-0.073-12.107-0.219c-2.217-0.086-4.326,0.738-5.904,2.261     c-1.579,1.524-2.471,3.624-2.471,5.817v43.622c0,1.361,0.042,2.717,0.104,4.068c0.02,0.448,0.048,0.895,0.075,1.342     c0.055,0.907,0.124,1.81,0.207,2.711c0.046,0.513,0.088,1.026,0.143,1.537c0.11,1.012,0.241,2.02,0.386,3.025     c0.129,0.911,0.281,1.813,0.438,2.715c0.085,0.484,0.167,0.968,0.26,1.449c0.162,0.843,0.336,1.679,0.521,2.514     c0.061,0.275,0.127,0.55,0.191,0.823c1.677,7.246,4.233,14.154,7.556,20.612c0.033,0.064,0.066,0.128,0.098,0.192     c0.475,0.918,0.961,1.829,1.468,2.728c0.018,0.033,0.039,0.066,0.057,0.1c0.911,1.614,1.87,3.195,2.876,4.746     c0.168,0.261,0.332,0.525,0.503,0.785c0.387,0.584,0.787,1.159,1.187,1.733c0.37,0.531,0.745,1.058,1.125,1.581     c0.329,0.449,0.655,0.9,0.993,1.343c0.729,0.963,1.472,1.914,2.239,2.848c0.014,0.017,0.027,0.036,0.042,0.052     c0.877,1.066,1.787,2.106,2.713,3.131c0.086,0.095,0.175,0.189,0.261,0.284c8.396,9.214,18.739,16.738,30.549,21.845v9.598     l-27.062,10.133H155.462z M247.889,461.322h-90.654v-51.404h-0.002V363.03h16.415l40.482,64.645     c1.173,1.872,3.06,3.183,5.225,3.628c0.54,0.111,1.085,0.165,1.628,0.165c0.016,0,0.031-0.003,0.047-0.003     c0.341-0.002,0.679-0.032,1.015-0.077c0.102-0.014,0.204-0.029,0.306-0.046c0.334-0.057,0.665-0.129,0.991-0.229     c0.027-0.009,0.054-0.016,0.081-0.025c0.33-0.105,0.651-0.236,0.967-0.383c0.086-0.04,0.17-0.081,0.255-0.124     c0.323-0.165,0.641-0.343,0.943-0.552l22.301-15.453V461.322z M219.889,339.568v-7.209c0.307,0.068,0.615,0.126,0.923,0.191     c0.253,0.054,0.507,0.107,0.761,0.158c1.23,0.247,2.465,0.469,3.706,0.664c0.253,0.04,0.507,0.077,0.76,0.114     c1.271,0.189,2.545,0.354,3.823,0.487c0.206,0.022,0.413,0.039,0.62,0.059c1.343,0.132,2.688,0.237,4.039,0.308     c0.122,0.006,0.245,0.009,0.367,0.015c1.444,0.07,2.892,0.11,4.342,0.11h33.541c1.451,0,2.898-0.041,4.343-0.11     c0.122-0.005,0.244-0.009,0.364-0.015c1.351-0.07,2.697-0.177,4.041-0.308c0.206-0.021,0.412-0.038,0.617-0.058     c1.279-0.134,2.555-0.299,3.826-0.487c0.253-0.038,0.505-0.074,0.758-0.114c1.241-0.195,2.476-0.416,3.707-0.664     c0.254-0.051,0.508-0.104,0.761-0.157c0.307-0.065,0.617-0.123,0.923-0.191v7.209l-36.109,46.407L219.889,339.568z      M354.712,409.915v51.403h-90.656v-46.761l22.329,15.471c0.304,0.21,0.623,0.39,0.949,0.555c0.08,0.041,0.161,0.08,0.241,0.117     c0.66,0.307,1.353,0.523,2.066,0.643c0.088,0.015,0.176,0.028,0.265,0.04c0.358,0.049,0.719,0.082,1.081,0.082     c0.001,0,0.001,0,0.002,0c0.146,0,0.291-0.014,0.437-0.023c0.126-0.006,0.251-0.006,0.377-0.019     c0.272-0.028,0.543-0.069,0.813-0.124c2.164-0.445,4.052-1.756,5.225-3.628l40.482-64.645h16.389V409.915z M359.539,341.887     c-0.004,0.005-0.009,0.012-0.014,0.017c-0.018,0.022-0.035,0.045-0.052,0.068c-0.354,0.433-0.686,0.882-1.002,1.34     c-0.126,0.182-0.247,0.369-0.368,0.554c-0.204,0.315-0.398,0.636-0.584,0.96c-0.123,0.213-0.249,0.425-0.365,0.643     c-0.24,0.455-0.466,0.917-0.672,1.388H335.31v0.003l-27.034-10.124v-9.609c11.83-5.116,22.186-12.654,30.591-21.888     c0.065-0.071,0.13-0.141,0.195-0.212c1.771-1.959,3.455-3.99,5.045-6.093c0.314-0.413,0.618-0.832,0.924-1.251     c0.41-0.562,0.813-1.127,1.208-1.699c0.378-0.542,0.755-1.085,1.121-1.636c0.224-0.34,0.439-0.684,0.659-1.027     c0.924-1.432,1.809-2.891,2.652-4.378c0.057-0.1,0.116-0.199,0.172-0.301c0.488-0.869,0.957-1.747,1.416-2.633     c0.054-0.105,0.108-0.21,0.162-0.315c1.924-3.747,3.589-7.644,4.977-11.673c0.004-0.014,0.01-0.028,0.014-0.041     c0.985-2.867,1.827-5.798,2.521-8.788c0.069-0.296,0.14-0.592,0.206-0.889c0.182-0.821,0.354-1.646,0.513-2.476     c0.096-0.498,0.181-0.999,0.268-1.5c0.151-0.869,0.297-1.738,0.424-2.614c0.149-1.027,0.281-2.058,0.395-3.094     c0.055-0.507,0.097-1.016,0.143-1.525c0.083-0.904,0.152-1.812,0.208-2.723c0.027-0.445,0.055-0.889,0.075-1.337     c0.061-1.352,0.104-2.707,0.104-4.069v-57.304c0-4.433-3.571-8.04-8.003-8.084c-0.006,0-0.044-0.001-0.082-0.002     c-0.019,0-0.051-0.001-0.078-0.002c-0.038-0.001-0.087-0.003-0.14-0.005c-0.042-0.001-0.087-0.003-0.137-0.005     c-0.069-0.003-0.151-0.008-0.235-0.012c-0.052-0.003-0.098-0.005-0.155-0.009c-0.144-0.009-0.308-0.019-0.487-0.032     c-0.058-0.004-0.127-0.01-0.189-0.014c-0.135-0.01-0.276-0.022-0.427-0.034c-0.088-0.008-0.181-0.016-0.274-0.025     c-0.152-0.014-0.314-0.03-0.48-0.046c-0.097-0.01-0.191-0.019-0.292-0.03c-0.26-0.028-0.531-0.058-0.819-0.093     c-0.049-0.006-0.101-0.013-0.15-0.019c-0.262-0.032-0.535-0.068-0.818-0.108c-0.117-0.016-0.241-0.034-0.362-0.052     c-0.226-0.032-0.458-0.068-0.696-0.105c-0.134-0.02-0.268-0.042-0.406-0.065c-0.274-0.044-0.557-0.093-0.845-0.144     c-0.105-0.018-0.205-0.034-0.31-0.054c-0.389-0.071-0.791-0.148-1.204-0.231c-0.116-0.024-0.238-0.05-0.357-0.074     c-0.309-0.064-0.624-0.131-0.945-0.203c-0.155-0.034-0.312-0.07-0.469-0.106c-0.314-0.072-0.633-0.149-0.956-0.227     c-0.148-0.037-0.294-0.071-0.444-0.109c-0.465-0.117-0.937-0.24-1.42-0.374c-0.06-0.016-0.123-0.036-0.184-0.053     c-0.427-0.12-0.86-0.246-1.298-0.377c-0.162-0.049-0.324-0.1-0.487-0.151c-0.355-0.11-0.713-0.224-1.074-0.343     c-0.174-0.057-0.347-0.114-0.522-0.174c-0.413-0.14-0.831-0.287-1.25-0.44c-0.112-0.041-0.222-0.078-0.334-0.12     c-0.525-0.194-1.056-0.399-1.59-0.612c-0.149-0.059-0.299-0.123-0.447-0.184c-0.397-0.163-0.796-0.33-1.195-0.503     c-0.185-0.081-0.371-0.163-0.557-0.246c-0.396-0.177-0.792-0.36-1.19-0.549c-0.163-0.078-0.326-0.152-0.488-0.231     c-0.551-0.267-1.103-0.543-1.657-0.834c-0.082-0.043-0.165-0.091-0.247-0.135c-0.473-0.251-0.946-0.512-1.42-0.781     c-0.181-0.103-0.362-0.21-0.543-0.316c-0.39-0.227-0.779-0.462-1.169-0.703c-0.183-0.113-0.368-0.226-0.551-0.343     c-0.456-0.29-0.911-0.59-1.366-0.898c-0.101-0.069-0.203-0.133-0.304-0.203c-0.487-0.336-0.972-0.689-1.455-1.048h49.089     c5.919,22.378,8.915,46.015,8.915,70.375C379.764,275.396,372.774,311.103,359.539,341.887z M401.53,495.832h-30.65v-26.427     v-51.403h30.65V495.832z M401.53,359.308v42.526h-30.65v-46.351c0.006-0.102,0.011-0.205,0.014-0.309     c0-0.009-0.001-0.017-0.001-0.026c0.005-0.183,0.03-0.361,0.055-0.539c0.027-0.194,0.063-0.379,0.109-0.556     c0.038-0.143,0.081-0.284,0.132-0.421c0.053-0.144,0.108-0.286,0.17-0.416c0.068-0.142,0.144-0.279,0.224-0.413     c0.069-0.114,0.137-0.233,0.209-0.333c0.881-1.231,2.313-2.04,3.939-2.04h20.949c2.674-0.001,4.851,2.174,4.851,4.849V359.308z      M459.275,490.981c0,2.674-2.175,4.851-4.851,4.851h-36.726v-85.914v-38.474c25.265,12.921,41.577,39.009,41.577,68.046V490.981z     " fill="#4a90e2"/>
			<circle cx="214.705" cy="225.733" r="10.779" fill="#4a90e2"/>
			<circle cx="297.293" cy="225.733" r="10.779" fill="#4a90e2"/>
			<path d="M319.774,192.676c-21.979-7.326-40.215-0.134-40.981,0.175c-4.139,1.675-6.136,6.387-4.464,10.527     c1.674,4.137,6.381,6.135,10.527,4.464c0.13-0.055,13.681-5.202,29.804,0.175c0.848,0.282,1.711,0.417,2.558,0.417     c3.385,0,6.539-2.142,7.668-5.53C326.298,198.667,324.01,194.088,319.774,192.676z" fill="#4a90e2"/>
			<path d="M282.972,264.152c-3.931-2.122-8.834-0.656-10.955,3.27c-2.769,5.128-9.067,8.44-16.046,8.44     c-6.978,0-13.275-3.312-16.046-8.44c-2.122-3.928-7.024-5.393-10.955-3.27c-3.929,2.121-5.393,7.027-3.27,10.955     c5.552,10.281,17.435,16.924,30.271,16.924c12.836,0,24.718-6.643,30.271-16.924     C288.365,271.179,286.901,266.273,282.972,264.152z" fill="#4a90e2"/>
			<path d="M255.973,257.219c4.466,0,8.084-3.619,8.084-8.084V221.11c0-4.466-3.618-8.084-8.084-8.084     c-4.466,0-8.084,3.619-8.084,8.084v28.025C247.889,253.6,251.507,257.219,255.973,257.219z" fill="#4a90e2"/>
		</g>
	</g>
</g>
<g>
</g>
<g>
</g>
<g>
</g>
<g>
</g>
<g>
</g>
<g>
</g>
<g>
</g>
<g>
</g>
<g>
</g>
<g>
</g>
<g>
</g>
<g>
</g>
<g>
</g>
<g>
</g>
<g>
</g>
</svg>
