<?xml version="1.0" encoding="UTF-8"?>
<svg width="91.44mm" height="91.44mm" clip-rule="evenodd" fill-rule="evenodd" image-rendering="optimizeQuality" shape-rendering="geometricPrecision" text-rendering="geometricPrecision" version="1.1" viewBox="0 0 9144 9144" xmlns="http://www.w3.org/2000/svg">
 <defs>
  <style type="text/css">.fil1 {fill:white;fill-rule:nonzero} .fil0 {fill:url(#a)}</style>
  <linearGradient id="a" x1="10043" x2="-898.9" y1="6303" y2="2841" gradientUnits="userSpaceOnUse">
   <stop stop-color="#48CFAE" offset="0"/>
   <stop stop-color="#4FC0E8" offset="1"/>
  </linearGradient>
 </defs>
 <polygon class="fil0" points="0 0 9144 0 9144 9144 0 9144"/>
 <path class="fil1" d="m3857 2961h1427v-314h-1427v314zm-1214 908h1631v-309c0-53 43-96 96-96h404c53 0 96 43 96 96v309h1631v-716h-3858v716zm1823 0h212v-213h-212v213zm2035 192h-1631v309c0 53-43 96-96 96h-404c-53 0-96-43-96-96v-309h-1631v2436h3858v-2436zm-1823 0h-212v213h212v-213zm-2131-1100h1119v-410c0-53 43-96 95-96h1619c53 0 96 43 96 96v410h1121c53 0 96 43 96 96v3536c0 53-43 96-96 96h-4050c-53 0-96-43-96-96v-3536c0-53 43-96 96-96z"/>
</svg>
