<?xml version="1.0" encoding="iso-8859-1"?>
<!-- Generator: Adobe Illustrator 19.0.0, SVG Export Plug-In . SVG Version: 6.00 Build 0)  -->
<svg version="1.1" id="Capa_1" xmlns="http://www.w3.org/2000/svg" xmlns:xlink="http://www.w3.org/1999/xlink" x="0px" y="0px"
	 viewBox="0 0 512 512" style="enable-background:new 0 0 512 512;" xml:space="preserve">
<g>
	<path style="fill:#FFB135;" d="M38,446h76c15.464,0,28,12.536,28,28l0,0c0,15.464-12.536,28-28,28H38c-15.464,0-28-12.536-28-28
		l0,0C10,458.536,22.536,446,38,446z"/>
	<path style="fill:#FFB135;" d="M218.063,446h75.898c15.464,0,28,12.536,28,28l0,0c0,15.464-12.536,28-28,28h-75.898
		c-15.464,0-28-12.536-28-28l0,0C190.063,458.536,202.599,446,218.063,446z"/>
</g>
<path style="fill:#FFC365;" d="M218.063,390h75.898c15.464,0,28,12.536,28,28l0,0c0,15.464-12.536,28-28,28h-75.898
	c-15.464,0-28-12.536-28-28l0,0C190.063,402.536,202.599,390,218.063,390z"/>
<g>
	<path style="fill:#FFB135;" d="M218.063,334h75.898c15.464,0,28,12.536,28,28l0,0c0,15.464-12.536,28-28,28h-75.898
		c-15.464,0-28-12.536-28-28l0,0C190.063,346.536,202.599,334,218.063,334z"/>
	<path style="fill:#FFB135;" d="M398,446h76c15.464,0,28,12.536,28,28l0,0c0,15.464-12.536,28-28,28h-76c-15.464,0-28-12.536-28-28
		l0,0C370,458.536,382.536,446,398,446z"/>
</g>
<g>
	<path style="fill:#FFC365;" d="M398,390h76c15.464,0,28,12.536,28,28l0,0c0,15.464-12.536,28-28,28h-76c-15.464,0-28-12.536-28-28
		l0,0C370,402.536,382.536,390,398,390z"/>
	<path style="fill:#FFC365;" d="M218.166,278h75.898c15.464,0,28,12.536,28,28l0,0c0,15.464-12.536,28-28,28h-75.898
		c-15.464,0-28-12.536-28-28l0,0C190.166,290.536,202.702,278,218.166,278z"/>
</g>
<path style="fill:#FFB135;" d="M218.166,128h75.898c15.464,0,28,12.536,28,28l0,0c0,15.464-12.536,28-28,28h-75.898
	c-15.464,0-28-12.536-28-28l0,0C190.166,140.536,202.702,128,218.166,128z"/>
<path d="M338,0c-5.522,0-10,4.477-10,10v39c0,5.523,4.478,10,10,10s10-4.477,10-10V10C348,4.477,343.522,0,338,0z"/>
<path d="M256,93.5c5.522,0,10-4.477,10-10V46.75c0-5.523-4.478-10-10-10s-10,4.477-10,10V83.5C246,89.023,250.478,93.5,256,93.5z"/>
<path d="M338,73.5c-2.63,0-5.21,1.07-7.07,2.93c-1.86,1.86-2.93,4.44-2.93,7.07s1.069,5.21,2.93,7.07s4.44,2.93,7.07,2.93
	s5.21-1.07,7.069-2.93c1.86-1.86,2.931-4.44,2.931-7.07s-1.07-5.21-2.931-7.07C343.21,74.57,340.63,73.5,338,73.5z"/>
<path d="M184.127,64V10c0-5.523-4.478-10-10-10s-10,4.477-10,10v54c0,5.523,4.478,10,10,10S184.127,69.523,184.127,64z"/>
<path d="M114,436H38c-20.953,0-38,17.047-38,38s17.047,38,38,38h76c20.953,0,38-17.047,38-38S134.953,436,114,436z M114,492H38
	c-9.925,0-18-8.075-18-18s8.075-18,18-18h76c9.925,0,18,8.075,18,18S123.925,492,114,492z"/>
<path d="M499.659,446c7.58-6.952,12.341-16.929,12.341-28c0-20.953-17.047-38-38-38h-76c-20.953,0-38,17.047-38,38
	c0,11.071,4.761,21.048,12.341,28c-7.58,6.952-12.341,16.929-12.341,28c0,20.953,17.047,38,38,38h76c20.953,0,38-17.047,38-38
	C512,462.929,507.239,452.952,499.659,446z M380,418c0-9.925,8.075-18,18-18h76c9.925,0,18,8.075,18,18s-8.075,18-18,18h-76
	C388.075,436,380,427.925,380,418z M474,492h-76c-9.925,0-18-8.075-18-18s8.075-18,18-18h76c9.925,0,18,8.075,18,18
	S483.925,492,474,492z"/>
<path d="M332.063,306c0-20.953-17.047-38-38-38h-75.897c-20.953,0-38,17.047-38,38c0,11.045,4.74,21.002,12.29,27.951
	c-7.61,6.954-12.392,16.953-12.392,28.049c0,11.071,4.761,21.048,12.341,28c-7.58,6.952-12.341,16.929-12.341,28
	s4.761,21.048,12.341,28c-7.58,6.952-12.341,16.929-12.341,28c0,20.953,17.047,38,38,38h75.897c20.953,0,38-17.047,38-38
	c0-11.071-4.761-21.048-12.341-28c7.58-6.952,12.341-16.929,12.341-28s-4.761-21.048-12.341-28c7.58-6.952,12.341-16.929,12.341-28
	c0-11.045-4.74-21.002-12.29-27.951C327.281,327.095,332.063,317.096,332.063,306z M311.961,474c0,9.925-8.075,18-18,18h-75.897
	c-9.925,0-18-8.075-18-18s8.075-18,18-18h75.897C303.886,456,311.961,464.075,311.961,474z M311.961,418c0,9.925-8.075,18-18,18
	h-75.897c-9.925,0-18-8.075-18-18s8.075-18,18-18h75.897C303.886,400,311.961,408.075,311.961,418z M218.063,380
	c-9.925,0-18-8.075-18-18s8.075-18,18-18h0.103h75.795c9.925,0,18,8.075,18,18s-8.075,18-18,18H218.063z M218.166,324
	c-9.925,0-18-8.075-18-18s8.075-18,18-18h75.897c9.925,0,18,8.075,18,18s-8.075,18-18,18h-0.103H218.166z"/>
<path d="M294.063,118h-75.897c-20.953,0-38,17.047-38,38s17.047,38,38,38h75.897c20.953,0,38-17.047,38-38S315.017,118,294.063,118z
	 M294.063,174h-75.897c-9.925,0-18-8.075-18-18s8.075-18,18-18h75.897c9.925,0,18,8.075,18,18S303.988,174,294.063,174z"/>
<g>
</g>
<g>
</g>
<g>
</g>
<g>
</g>
<g>
</g>
<g>
</g>
<g>
</g>
<g>
</g>
<g>
</g>
<g>
</g>
<g>
</g>
<g>
</g>
<g>
</g>
<g>
</g>
<g>
</g>
</svg>
