<?xml version="1.0" encoding="iso-8859-1"?>
<!-- Generator: Adobe Illustrator 19.0.0, SVG Export Plug-In . SVG Version: 6.00 Build 0)  -->
<svg xmlns="http://www.w3.org/2000/svg" xmlns:xlink="http://www.w3.org/1999/xlink" version="1.1" id="Capa_1" x="0px" y="0px" viewBox="0 0 512.148 512.148" style="enable-background:new 0 0 512.148 512.148;" xml:space="preserve" width="512px" height="512px">
<g>
	<g>
		<g>
			<path d="M320.412,176.074h-128v-48h-32v384h32v-48h128v48h32v-384h-32V176.074z M320.412,432.074h-128v-32h128V432.074z      M320.412,368.074h-128v-32h128V368.074z M320.412,304.074h-128v-32h128V304.074z M320.412,240.074h-128v-32h128V240.074z" fill="#2582f5"/>
			<path d="M205.212,32.074l-0.896-32c-12.017,0.33-23.945,2.169-35.504,5.472l8.816,30.768     C186.61,33.755,195.876,32.331,205.212,32.074z" fill="#2582f5"/>
			<path d="M32.412,192.074c-0.004-26.188,20.984-47.546,47.168-48l16,0.416l1.776-14.4c1.902-15.513,7.066-30.449,15.152-43.824     L85.116,69.802c-8.081,13.356-13.909,27.951-17.248,43.2c-43.671,6.707-73.636,47.545-66.93,91.216     c6.018,39.186,39.828,68.054,79.474,67.856h48v-32h-48C53.902,240.074,32.412,218.583,32.412,192.074z" fill="#2582f5"/>
			<path d="M107.308,41.674l22.512,22.704c6.638-6.581,14.078-12.3,22.144-17.024l-16.192-27.616     C125.41,25.84,115.848,33.208,107.308,41.674z" fill="#2582f5"/>
			<path d="M460.54,131.274c-15.839-59.739-77.107-95.327-136.846-79.488c-1.282,0.34-2.557,0.702-3.826,1.088     c-20.335-24.939-48.467-42.313-79.872-49.328l-6.992,31.232c27.718,6.215,52.024,22.762,67.968,46.272l7.456,10.928l12.144-5.28     c40.455-17.587,87.507,0.951,105.094,41.406c2.665,6.13,4.55,12.571,5.61,19.17l1.92,11.904l11.968,1.44     c21.871,2.487,37.585,22.233,35.098,44.104c-2.301,20.234-19.485,35.479-39.85,35.352h-56v32h56     c39.685-0.066,71.802-32.291,71.736-71.976C512.094,168.256,491.091,140.247,460.54,131.274z" fill="#2582f5"/>
		</g>
	</g>
</g>
<g>
</g>
<g>
</g>
<g>
</g>
<g>
</g>
<g>
</g>
<g>
</g>
<g>
</g>
<g>
</g>
<g>
</g>
<g>
</g>
<g>
</g>
<g>
</g>
<g>
</g>
<g>
</g>
<g>
</g>
</svg>
